<?xml version="1.0" encoding="utf-8"?>
<!-- Generator: Adobe Illustrator 26.1.0, SVG Export Plug-In . SVG Version: 6.00 Build 0)  -->
<svg version="1.1" id="Layer_1" xmlns="http://www.w3.org/2000/svg" xmlns:xlink="http://www.w3.org/1999/xlink" x="0px" y="0px"
	 viewBox="0 0 624.6 200" style="enable-background:new 0 0 624.6 200;" xml:space="preserve">
<style type="text/css">
	.st0{fill:#FFFFFF;}
</style>
<g>
	<g>
		<g>
			<path class="st0" d="M233,87.6l-15.2-26.3l-6.6-11.5l-19.8-34.4C186.9,7.7,178.7,3,169.8,3H86.5C77.6,3,69.4,7.7,65,15.4
				L23.3,87.6c-0.6,1-1.1,2-1.5,3.1c-2.9,7.1-2.4,15.1,1.5,21.8l7.9,13.6l6.7,11.6l26.6,46.2l0.4,0.7c4.4,7.7,12.7,12.4,21.6,12.4
				h83.3c8.9,0,17.1-4.7,21.6-12.4l41.6-72.1C237.5,104.7,237.5,95.3,233,87.6z M207.1,109.4l-31.3,54.3c-3.3,5.8-9.5,9.4-16.2,9.4
				H96.8c-1.4,0-2.8-0.2-4.2-0.5c-5-1.1-9.4-4.3-12.1-8.9L63.5,134l-5.5-9.6l-8.7-15.1c-2.8-4.9-3.3-10.8-1.3-16
				c0.3-0.9,0.8-1.9,1.3-2.7l31.3-54.3C84,30.5,90.1,27,96.9,27h62.7c6.7,0,12.9,3.6,16.2,9.4l2.4,4.1l9.7,16.8l4.8,8.2l9.1,15.7
				l5.4,9.4C210.4,96.4,210.4,103.6,207.1,109.4z"/>
		</g>
		<path class="st0" d="M115.1,132.5l-22.4,10.1L68.6,99.8c0,0,62.3-5,76.7-48.8c0,0,29.4,43.8-41.6,62.9L115.1,132.5z"/>
		<path class="st0" d="M128.4,139.8l-13.3-22.6c0,0,54.3-11,38.3-58.1c0,0,29.1,41.5-18.4,62.9l8.4,11.1L128.4,139.8z"/>
		<path class="st0" d="M154.6,137.6l-11.3-15.2c0,0,36.1-15.9,18.8-50.4C162.2,72,204,107.4,154.6,137.6z"/>
	</g>
	<g>
		<path class="st0" d="M285.9,128.8v5.9h-2v-14.4h5.3c2.7,0,4.5,1.9,4.5,4.3c0,2.4-1.8,4.3-4.5,4.3H285.9z M288.8,127
			c1.7,0,2.8-1,2.8-2.4c0-1.5-1.1-2.5-2.8-2.5h-2.9v4.9H288.8z"/>
		<path class="st0" d="M309.6,130.7h-6.4l-1.5,4h-2.1l5.7-14.4h2.3l5.7,14.4h-2.2L309.6,130.7z M303.9,128.9h5l-2.5-6.5L303.9,128.9
			z"/>
		<path class="st0" d="M318.7,120.3h2.4l3.7,6.4l3.7-6.4h2.3l-5.1,8.3v6.2h-2v-6.2L318.7,120.3z"/>
		<path class="st0" d="M349,120.3h2.4l3.7,6.4l3.7-6.4h2.3l-5.1,8.3v6.2h-2v-6.2L349,120.3z"/>
		<path class="st0" d="M375,120c3.6,0,7.2,2.7,7.2,7.5c0,4.8-3.6,7.5-7.2,7.5c-3.6,0-7.2-2.7-7.2-7.5C367.7,122.7,371.3,120,375,120
			z M375,133.2c2.7,0,5.2-1.9,5.2-5.7c0-3.8-2.5-5.7-5.2-5.7c-2.7,0-5.2,1.9-5.2,5.7C369.7,131.3,372.3,133.2,375,133.2z"/>
		<path class="st0" d="M391.1,129.8v-9.5h2v9.4c0,2.2,1.2,3.4,3.2,3.4c2,0,3.2-1.2,3.2-3.4v-9.4h2v9.5c0,3.4-2.3,5.2-5.2,5.2
			C393.3,135,391.1,133.2,391.1,129.8z"/>
		<path class="st0" d="M415.4,128.8h-2.2v5.9h-2v-14.4h5.4c2.7,0,4.4,1.9,4.4,4.3c0,2.1-1.3,3.7-3.5,4.1l3.4,6h-2.3L415.4,128.8z
			 M416.3,127c1.6,0,2.7-1,2.7-2.4c0-1.5-1.1-2.5-2.7-2.5h-3.1v4.9H416.3z"/>
		<path class="st0" d="M446.7,122.2v12.6h-2v-12.6h-4.8v-1.9h11.6v1.9H446.7z"/>
		<path class="st0" d="M467,130.7h-6.4l-1.5,4H457l5.7-14.4h2.3l5.7,14.4h-2.2L467,130.7z M461.3,128.9h5l-2.5-6.5L461.3,128.9z"/>
		<path class="st0" d="M484.7,127.5l4.8,7.2h-2.4l-3.6-5.6l-3.7,5.6h-2.3l4.9-7.2l-4.9-7.2h2.4l3.6,5.7l3.7-5.7h2.4L484.7,127.5z"/>
		<path class="st0" d="M509.4,134.7v-14.4h8.8v1.9h-6.8v4.4h6.1v1.9h-6.1v4.4h6.8v1.9H509.4z"/>
		<path class="st0" d="M536,130.7h-6.4l-1.5,4h-2.1l5.7-14.4h2.3l5.7,14.4h-2.2L536,130.7z M530.3,128.9h5l-2.5-6.5L530.3,128.9z"/>
		<path class="st0" d="M555.2,124.2c-0.2-1-1-2.5-3.1-2.5c-1.6,0-2.8,1.1-2.8,2.4c0,1,0.6,1.8,1.9,2.1l2.2,0.5
			c2.4,0.5,3.7,2,3.7,4.1c0,2.2-1.9,4.3-5,4.3c-3.5,0-5.1-2.2-5.4-4.3l1.9-0.6c0.1,1.6,1.3,3.1,3.5,3.1c2,0,3-1,3-2.3
			c0-1-0.7-1.9-2.2-2.2l-2.1-0.4c-2.1-0.4-3.5-1.8-3.5-4c0-2.3,2.1-4.3,4.8-4.3c3.3,0,4.6,2,4.9,3.6L555.2,124.2z"/>
		<path class="st0" d="M566.2,134.7v-14.4h2v14.4H566.2z"/>
		<path class="st0" d="M578.2,134.7v-14.4h2v12.6h6.8v1.9H578.2z"/>
		<path class="st0" d="M592.8,120.3h2.4l3.7,6.4l3.7-6.4h2.3l-5.1,8.3v6.2h-2v-6.2L592.8,120.3z"/>
	</g>
	<g>
		<path class="st0" d="M305.1,67.7v31.4h-8.9V67.7h-12.3v-8.5h33.5v8.5H305.1z"/>
		<path class="st0" d="M344.4,91H329l-2.9,8.1h-9.3l15-39.9h10.3l14.9,39.9h-9.7L344.4,91z M331.9,82.9h9.7l-4.8-13.8L331.9,82.9z"
			/>
		<path class="st0" d="M382.5,79.2l12.9,19.9h-10.8l-7.9-12.9l-7.8,12.9h-10.5l12.9-20l-12.9-19.9h10.7l7.9,12.9l7.9-12.9h10.4
			L382.5,79.2z"/>
		<path class="st0" d="M453.9,99.1V72.7l-10.4,26.4h-7.2L425.9,73v26.1h-8.4V59.2h11.6l11,27l10.4-27h12.2v39.9H453.9z"/>
		<path class="st0" d="M472.7,99.1V59.2H498v8.4h-16.4v7.6h14.9V83h-14.9v7.7h16.4v8.4H472.7z"/>
		<path class="st0" d="M506.9,99.1V59.2h14.5c12,0,20,7.7,20,20s-8,19.9-20.1,19.9H506.9z M521,90.7c6.1,0,11.1-3.5,11.1-11.5
			s-5-11.6-11.1-11.6h-5.2v23.1H521z"/>
		<path class="st0" d="M549.2,99.1V59.2h9v39.9H549.2z"/>
		<path class="st0" d="M592.1,91h-15.4l-2.9,8.1h-9.3l15-39.9h10.3l14.9,39.9h-9.7L592.1,91z M579.6,82.9h9.7l-4.8-13.8L579.6,82.9z
			"/>
	</g>
</g>
<rect x="160.4" y="-173" style="fill:none;" width="39.1" height="0"/>
</svg>
