<?xml version="1.0" encoding="utf-8"?>
<svg version="1.1" id="Layer_1" xmlns="http://www.w3.org/2000/svg"
 xmlns:xlink="http://www.w3.org/1999/xlink" x="0px" y="0px"
	 viewBox="0 0 258.8 234.2" style="enable-background:new 0 0 258.8 234.2;" xml:space="preserve">
<style type="text/css">
	.st0{fill:url(#SVGID_1_);}
	.st1{fill:#7367F0;}
	.st2{fill:url(#SVGID_2_);}
	.st3{fill:url(#SVGID_3_);}
	.st4{fill:url(#SVGID_4_);}
	.st5{fill:url(#SVGID_5_);}
	.st6{fill:url(#SVGID_6_);}
	.st7{fill:url(#SVGID_7_);}
	.st8{fill:#ACACF9;}
	.st9{fill:url(#SVGID_8_);}
	.st10{opacity:0.4;}
	.st11{fill:url(#SVGID_9_);}
	.st12{fill:url(#SVGID_10_);}
	.st13{fill:url(#SVGID_11_);}
	.st14{fill:url(#SVGID_12_);}
	.st15{fill:url(#SVGID_13_);}
	.st16{fill:url(#SVGID_14_);}
	.st17{fill:#FFFFFF;}
	.st18{fill:url(#SVGID_15_);}
	.st19{fill:url(#SVGID_16_);}
	.st20{fill:url(#SVGID_17_);}
	.st21{fill:#C4C4F7;}
	.st22{fill:url(#SVGID_18_);}
	.st23{fill:#7676DD;}
	.st24{fill:none;stroke:#FFFFFF;stroke-width:5;stroke-miterlimit:10;}
	.st25{fill:none;stroke:#7367F0;stroke-width:9;stroke-miterlimit:10;}
	.st26{fill:url(#SVGID_19_);}
	.st27{fill:url(#SVGID_20_);}
	.st28{fill:url(#SVGID_21_);}
	.st29{fill:url(#SVGID_22_);}
	.st30{fill:url(#SVGID_23_);}
	.st31{fill:url(#SVGID_24_);}
	.st32{fill:url(#SVGID_25_);}
	.st33{fill:url(#SVGID_26_);}
	.st34{fill:url(#SVGID_27_);}
	.st35{fill:url(#SVGID_28_);}
	.st36{fill:url(#SVGID_29_);}
	.st37{fill:url(#SVGID_30_);}
	.st38{fill-rule:evenodd;clip-rule:evenodd;fill:#6F67EB;}
	.st39{fill:url(#SVGID_31_);}
	.st40{fill:url(#SVGID_32_);}
	.st41{fill:url(#SVGID_33_);}
	.st42{fill:url(#SVGID_34_);}
	.st43{fill:url(#SVGID_35_);}
	.st44{fill:url(#SVGID_36_);}
	.st45{fill:url(#SVGID_37_);}
	.st46{fill:url(#SVGID_38_);}
	.st47{fill:url(#SVGID_39_);}
	.st48{fill:url(#SVGID_40_);}
	.st49{fill:url(#SVGID_41_);}
	.st50{fill:url(#SVGID_42_);}
	.st51{fill:url(#SVGID_43_);}
	.st52{fill:url(#SVGID_44_);}
	.st53{fill:url(#SVGID_45_);}
	.st54{fill:url(#SVGID_46_);}
</style>
<g id="BACKGROUND">
	<g>
		<g>
			
				<linearGradient id="SVGID_1_" gradientUnits="userSpaceOnUse" x1="-708.3947" y1="-365.8266" x2="-170.9147" y2="-903.3065" gradientTransform="matrix(1 0 0 -1 0 -78.5532)">
				<stop  offset="0" style="stop-color:#0F1F3B"/>
				<stop  offset="1" style="stop-color:#060C18"/>
			</linearGradient>
			<rect x="-706.4" y="289.3" class="st0" width="500" height="500"/>
		</g>
		<rect x="-706.4" y="665.3" class="st1" width="500" height="124"/>
	</g>
	<g>
		<g>
			
				<linearGradient id="SVGID_2_" gradientUnits="userSpaceOnUse" x1="-1326.1851" y1="786.224" x2="-788.7051" y2="248.7439" gradientTransform="matrix(1 0 0 -1 0 -78.5532)">
				<stop  offset="0" style="stop-color:#0F1F3B"/>
				<stop  offset="1" style="stop-color:#060C18"/>
			</linearGradient>
			<rect x="-1324.2" y="-862.8" class="st2" width="500" height="500"/>
		</g>
		<rect x="-1324.2" y="-486.8" class="st1" width="500" height="124"/>
	</g>
	<g>
		<g>
			<g>
				
					<text transform="matrix(1 0 0 1 -494.8539 731.9565)" class="st17" style="font-family:'Montserrat-Black'; font-size:25.1733px;">TAX MEDIA</text>
			</g>
		</g>
		<g>
			<g>
				
					<text transform="matrix(1 0 0 1 -495.1459 744.4028)" class="st17" style="font-family:'Montserrat-SemiBold'; font-size:9.5103px; letter-spacing:1;">PAY YOUR TAX EASILY</text>
			</g>
		</g>
	</g>
	<g>
		<g>
			
				<linearGradient id="SVGID_3_" gradientUnits="userSpaceOnUse" x1="-708.3946" y1="213.7234" x2="-170.9146" y2="-323.7566" gradientTransform="matrix(1 0 0 -1 0 -78.5532)">
				<stop  offset="0" style="stop-color:#0F1F3B"/>
				<stop  offset="1" style="stop-color:#060C18"/>
			</linearGradient>
			<rect x="-706.4" y="-290.3" class="st3" width="500" height="500"/>
		</g>
		<rect x="-706.4" y="85.7" class="st1" width="500" height="124"/>
	</g>
	<g>
		<g>
			<g>
				
					<text transform="matrix(1 0 0 1 -494.8539 152.4067)" class="st17" style="font-family:'Montserrat-Black'; font-size:25.1733px;">TAX MEDIA</text>
			</g>
		</g>
		<g>
			<g>
				
					<text transform="matrix(1 0 0 1 -495.1459 164.8529)" class="st17" style="font-family:'Montserrat-SemiBold'; font-size:9.5103px; letter-spacing:1;">PAY YOUR TAX EASILY</text>
			</g>
		</g>
	</g>
	<g>
		<g>
			
				<linearGradient id="SVGID_4_" gradientUnits="userSpaceOnUse" x1="-1896.2046" y1="-365.8267" x2="-1358.7246" y2="-903.3067" gradientTransform="matrix(1 0 0 -1 0 -78.5532)">
				<stop  offset="0" style="stop-color:#0F1F3B"/>
				<stop  offset="1" style="stop-color:#060C18"/>
			</linearGradient>
			<rect x="-1894.2" y="289.3" class="st4" width="500" height="500"/>
		</g>
		<rect x="-1894.2" y="665.3" class="st1" width="500" height="124"/>
	</g>
	<g>
		<g>
			<g>
				
					<text transform="matrix(1 0 0 1 -1112.646 871.1243)" class="st17" style="font-family:'Montserrat-Black'; font-size:25.1733px;">TAX MEDIA</text>
			</g>
		</g>
		<g>
			<g>
				
					<text transform="matrix(1 0 0 1 -1112.938 883.5706)" class="st17" style="font-family:'Montserrat-SemiBold'; font-size:9.5103px; letter-spacing:1;">PAY YOUR TAX EASILY</text>
			</g>
		</g>
	</g>
	<g>
		<g>
			
				<linearGradient id="SVGID_5_" gradientUnits="userSpaceOnUse" x1="-1326.1857" y1="213.7245" x2="-788.7057" y2="-323.7555" gradientTransform="matrix(1 0 0 -1 0 -78.5532)">
				<stop  offset="0" style="stop-color:#0F1F3B"/>
				<stop  offset="1" style="stop-color:#060C18"/>
			</linearGradient>
			<rect x="-1324.2" y="-290.3" class="st5" width="500" height="500"/>
		</g>
		<rect x="-1324.2" y="85.7" class="st1" width="500" height="124"/>
	</g>
	<g>
		<g>
			<g>
				
					<text transform="matrix(1 0 0 1 -1112.646 152.4062)" class="st17" style="font-family:'Montserrat-Black'; font-size:25.1733px;">TAX MEDIA</text>
			</g>
		</g>
		<g>
			<g>
				
					<text transform="matrix(1 0 0 1 -1112.938 164.8525)" class="st17" style="font-family:'Montserrat-SemiBold'; font-size:9.5103px; letter-spacing:1;">PAY YOUR TAX EASILY</text>
			</g>
		</g>
	</g>
</g>
<linearGradient id="SVGID_6_" gradientUnits="userSpaceOnUse" x1="-613.8118" y1="596.4173" x2="-707.7199" y2="650.6353" gradientTransform="matrix(1 0 0 -1 0 -78.5532)">
	<stop  offset="0" style="stop-color:#C4C4F7"/>
	<stop  offset="0.1979" style="stop-color:#B9B8F6"/>
	<stop  offset="0.5585" style="stop-color:#9D97F4"/>
	<stop  offset="1" style="stop-color:#7367F0"/>
</linearGradient>
<path class="st6" d="M-602.2-709l-8.5-14.7l-3.7-6.4l-11.1-19.2c-2.5-4.3-7.1-7-12-7H-684c-5,0-9.6,2.7-12,7l-23.3,40.3
	c-0.3,0.6-0.6,1.1-0.8,1.7c-1.6,3.9-1.3,8.5,0.8,12.2l4.4,7.6l3.7,6.5l14.9,25.8l0.2,0.4c2.5,4.3,7.1,7,12,7h46.5c5,0,9.6-2.6,12-7
	l23.3-40.3C-599.7-699.4-599.7-704.7-602.2-709z M-616.7-696.8l-17.5,30.3c-1.9,3.2-5.3,5.2-9.1,5.2h-35c-0.8,0-1.6-0.1-2.3-0.3
	c-2.8-0.6-5.3-2.4-6.8-5l-9.6-16.6l-3.1-5.3l-4.9-8.4c-1.6-2.7-1.8-6-0.7-8.9c0.2-0.5,0.4-1,0.7-1.5l17.5-30.3
	c1.9-3.2,5.3-5.2,9.1-5.2h35c3.7,0,7.2,2,9.1,5.2l1.3,2.3l5.4,9.4l2.7,4.6l5.1,8.8l3,5.3C-614.8-704.1-614.8-700.1-616.7-696.8z"/>
<linearGradient id="SVGID_7_" gradientUnits="userSpaceOnUse" x1="-545.6849" y1="1228.0647" x2="-639.593" y2="1282.2825" gradientTransform="matrix(0 1 1 0 -1847.8132 -243.0877)">
	<stop  offset="0" style="stop-color:#C4C4F7"/>
	<stop  offset="0.1979" style="stop-color:#B9B8F6"/>
	<stop  offset="0.5585" style="stop-color:#9D97F4"/>
	<stop  offset="1" style="stop-color:#7367F0"/>
</linearGradient>
<path class="st7" d="M-585.7-777.1l14.7-8.5l6.4-3.7l19.2-11.1c4.3-2.5,7-7.1,7-12V-859c0-5-2.6-9.6-7-12l-40.3-23.3
	c-0.6-0.3-1.1-0.6-1.7-0.8c-3.9-1.6-8.5-1.3-12.2,0.8l-7.6,4.4l-6.5,3.7l-25.8,14.9l-0.4,0.2c-4.3,2.5-7,7.1-7,12v46.5
	c0,5,2.7,9.6,7,12l40.3,23.3C-595.3-774.7-590-774.7-585.7-777.1z M-597.9-791.6l-30.3-17.5c-3.2-1.9-5.2-5.3-5.2-9.1v-35
	c0-0.8,0.1-1.6,0.3-2.3c0.6-2.8,2.4-5.3,5-6.8l16.6-9.6l5.3-3.1l8.4-4.8c2.7-1.6,6-1.8,8.9-0.7c0.5,0.2,1,0.4,1.5,0.7l30.3,17.5
	c3.2,1.9,5.2,5.3,5.2,9.1v35c0,3.7-2,7.2-5.2,9.1l-2.3,1.3l-9.4,5.4l-4.6,2.7l-8.8,5.1l-5.3,3C-590.6-789.8-594.6-789.8-597.9-791.6
	z"/>
<g>
	<g>
		<g>
			
				<text transform="matrix(1 0 0 1 -1196.5851 -604.1448)" class="st1" style="font-family:'Montserrat-Black'; font-size:40.052px;">TAX MEDIA</text>
		</g>
	</g>
	<g>
		<g>
			
				<text transform="matrix(1 0 0 1 -1205.0948 -584.342)" class="st17" style="font-family:'Montserrat-SemiBold'; font-size:15.1314px; letter-spacing:3;">PAY YOUR TAX EASILY</text>
		</g>
	</g>
</g>
<g>
	<g>
		<g>
			<text transform="matrix(1 0 0 1 -585.2013 559.7475)" class="st1" style="font-family:'Montserrat-Black'; font-size:40.052px;">TAX MEDIA</text>
		</g>
	</g>
	<g>
		<g>
			
				<text transform="matrix(1 0 0 1 -587.3029 579.5502)" class="st17" style="font-family:'Montserrat-SemiBold'; font-size:15.1314px; letter-spacing:3;">PAY YOUR TAX EASILY</text>
		</g>
	</g>
</g>
<path class="st8" d="M-1136.4-717.2L-1136.4-717.2c0.6-6.6,5.9-11.8,12.5-12.2l9.1-0.2l1.3,26.6L-1136.4-717.2z"/>
<path class="st8" d="M-1136.5-688.7L-1136.5-688.7c-1.4-9.4,4.2-18.5,13.3-21.3l4.7-1.5l18.7,34.8L-1136.5-688.7z"/>
<g>
	
		<linearGradient id="SVGID_8_" gradientUnits="userSpaceOnUse" x1="-1019.5992" y1="601.4616" x2="-1113.4999" y2="655.6752" gradientTransform="matrix(1 0 0 -1 0 -78.5532)">
		<stop  offset="0" style="stop-color:#C4C4F7"/>
		<stop  offset="0.1979" style="stop-color:#B9B8F6"/>
		<stop  offset="0.5585" style="stop-color:#9D97F4"/>
		<stop  offset="1" style="stop-color:#7367F0"/>
	</linearGradient>
	<path class="st9" d="M-1008-714.1l-8.5-14.7l-3.7-6.4l-11.1-19.2c-2.5-4.3-7.1-7-12-7h-46.5c-5,0-9.6,2.6-12.1,7l-23.3,40.3
		c-0.3,0.6-0.6,1.1-0.8,1.7c-1.6,4-1.3,8.5,0.8,12.2l4.4,7.6l3.7,6.5l14.9,25.8l0.2,0.4c2.5,4.3,7.1,7,12.1,7h46.5c5,0,9.6-2.7,12-7
		l23.3-40.3C-1005.5-704.5-1005.5-709.8-1008-714.1z M-1022.5-701.9l-17.5,30.3c-1.9,3.2-5.3,5.2-9.1,5.2h-35
		c-0.8,0-1.6-0.1-2.3-0.3c-2.8-0.6-5.3-2.4-6.8-5l-9.6-16.6l-3.1-5.3l-4.8-8.4c-1.6-2.7-1.8-6-0.7-8.9c0.2-0.5,0.4-1,0.7-1.5
		l17.5-30.3c1.9-3.2,5.3-5.2,9.1-5.2h35c3.7,0,7.2,2,9.1,5.2l1.3,2.3l5.4,9.4l2.7,4.6l5.1,8.8l3,5.3
		C-1020.6-709.1-1020.6-705.1-1022.5-701.9z"/>
	<g class="st10">
		
			<linearGradient id="SVGID_9_" gradientUnits="userSpaceOnUse" x1="-1087.0679" y1="586.8152" x2="-1118.4648" y2="604.9423" gradientTransform="matrix(1 0 0 -1 0 -78.5532)">
			<stop  offset="0" style="stop-color:#C4C4F7"/>
			<stop  offset="0.1979" style="stop-color:#B9B8F6"/>
			<stop  offset="0.5585" style="stop-color:#9D97F4"/>
			<stop  offset="1" style="stop-color:#7367F0"/>
		</linearGradient>
		<path class="st11" d="M-1086.4-666.6c-2.7,1.4-5.5,2.8-8.3,4.1c-2.5,1.1-5,1.9-7.5,2.2l-14.9-25.8c4.8-0.3,9.5-1,14.3-2.1
			l9.6,16.6C-1091.6-669-1089.2-667.2-1086.4-666.6z"/>
		
			<linearGradient id="SVGID_10_" gradientUnits="userSpaceOnUse" x1="-1019.0527" y1="645.6586" x2="-1028.6284" y2="651.1871" gradientTransform="matrix(1 0 0 -1 0 -78.5532)">
			<stop  offset="0" style="stop-color:#C4C4F7"/>
			<stop  offset="0.1979" style="stop-color:#B9B8F6"/>
			<stop  offset="0.5585" style="stop-color:#9D97F4"/>
			<stop  offset="1" style="stop-color:#7367F0"/>
		</linearGradient>
		<path class="st12" d="M-1016.4-728.7c-3,3.8-6,7.5-9.1,11.1l-5.1-8.8c3.5-2.8,6.9-5.7,10.4-8.8L-1016.4-728.7z"/>
		
			<linearGradient id="SVGID_11_" gradientUnits="userSpaceOnUse" x1="-1104.7876" y1="616.6328" x2="-1128.0936" y2="630.0886" gradientTransform="matrix(1 0 0 -1 0 -78.5532)">
			<stop  offset="0" style="stop-color:#C4C4F7"/>
			<stop  offset="0.1979" style="stop-color:#B9B8F6"/>
			<stop  offset="0.5585" style="stop-color:#9D97F4"/>
			<stop  offset="1" style="stop-color:#7367F0"/>
		</linearGradient>
		<path class="st13" d="M-1110.6-701.9l4.8,8.4c-1.9,0.5-3.8,0.9-5.8,1.3c-3.2,0.6-6.3,0.5-9.2-0.4l-4.4-7.6
			c-2.2-3.7-2.4-8.2-0.8-12.2c4.7,1,9.6,1.5,14.6,1.5C-1112.5-707.9-1112.2-704.6-1110.6-701.9z"/>
		
			<linearGradient id="SVGID_12_" gradientUnits="userSpaceOnUse" x1="-1029.8207" y1="658.3392" x2="-1037.9355" y2="663.0242" gradientTransform="matrix(1 0 0 -1 0 -78.5532)">
			<stop  offset="0" style="stop-color:#C4C4F7"/>
			<stop  offset="0.1979" style="stop-color:#B9B8F6"/>
			<stop  offset="0.5585" style="stop-color:#9D97F4"/>
			<stop  offset="1" style="stop-color:#7367F0"/>
		</linearGradient>
		<polygon class="st14" points="-1026.6,-742.9 -1033.2,-731 -1038.6,-740.4 		"/>
	</g>
</g>
<g>
	
		<linearGradient id="SVGID_13_" gradientUnits="userSpaceOnUse" x1="-1136.4546" y1="633.4138" x2="-996.0046" y2="633.4138" gradientTransform="matrix(1 0 0 -1 0 -78.5532)">
		<stop  offset="0" style="stop-color:#C4C4F7"/>
		<stop  offset="1" style="stop-color:#7367F0"/>
	</linearGradient>
	<path class="st15" d="M-1020.9-749.9l10.6,2.3c-42.6,40.3-84.8,64-126.1,58.9c1.4,19.9,22.2,32.2,40.4,24
		c33.8-15.4,62.7-43.7,88.6-80.2l4,9.8l7.4-26.6L-1020.9-749.9z"/>
	
		<linearGradient id="SVGID_14_" gradientUnits="userSpaceOnUse" x1="-1136.6769" y1="641.0414" x2="-1028.0146" y2="641.0414" gradientTransform="matrix(1 0 0 -1 0 -78.5532)">
		<stop  offset="0" style="stop-color:#C4C4F7"/>
		<stop  offset="1" style="stop-color:#7367F0"/>
	</linearGradient>
	<path class="st16" d="M-1112.9-694.4c25.8-5,50.5-19.9,74.3-41l1.1,7.3l9.5-17l-19,4l7.3,3.6c-36.1,21-69.1,30.7-96.7,20.3l0,0
		C-1138.7-703.5-1126.6-691.8-1112.9-694.4z"/>
</g>
<g>
	<g>
		<g>
			<g>
				
					<text transform="matrix(1 0 0 1 -1118.1254 -419.5602)" class="st17" style="font-family:'Montserrat-Black'; font-size:25.1733px;">TAX MEDIA</text>
			</g>
		</g>
		<g>
			<g>
				
					<text transform="matrix(1 0 0 1 -1118.4174 -407.1139)" class="st17" style="font-family:'Montserrat-SemiBold'; font-size:9.5103px; letter-spacing:1;">PAY YOUR TAX EASILY</text>
			</g>
		</g>
	</g>
	<g>
		<path class="st17" d="M-1144.2-444.8l5.5,1.2c-20.5,19.4-40.9,31.3-60.8,30.7l-3.3-1.1c-0.2-2,0.3-4,1.4-5.6
			c2.3,2.7,5.9,4.2,9.8,3.4c13.3-2.6,26.1-10.3,38.4-21.2l0.6,3.8l4.9-8.8l-9.8,2.1l3.8,1.9c-17,9.9-32.6,14.9-46,11.7l-2.8-1.7
			c0.5-2.6,2.7-4.6,5.4-4.8l3.4-0.1l-3.5,6c1.9,0.3,3.9,0.5,6,0.5l0,0c0.6,0,1.2,0,1.8,0l8.2-14.2c1-1.7,2.8-2.7,4.7-2.7h18.1
			c1.6,0,3,0.7,4,1.8l7.3-1.5l-2.1-3.6c-1.3-2.2-3.7-3.6-6.2-3.6h-24c-2.6,0-4.9,1.4-6.2,3.6l-7.4,12.8l-4,0.1
			c-3.4,0.2-6.2,2.9-6.4,6.3l0,0c-0.5,2.8,0.2,5.4,1.7,7.5c-1.4,2-2.1,4.6-1.7,7.2l0,0l0,0c0.7,10.3,11.5,16.6,20.9,12.4
			c17.4-7.9,32.4-22.6,45.7-41.4l2.1,5.1l3.8-13.7L-1144.2-444.8z"/>
		<path class="st17" d="M-1191.5-415.1c-0.7,0.1-1.5,0.2-2.2,0.2l0,0c-0.7,0-1.3-0.1-2-0.2l0.7,1.1c2.4-0.2,4.9-0.5,7.4-1l-0.4-0.6
			l-0.1-0.2C-1189.2-415.6-1190.4-415.3-1191.5-415.1z"/>
		<path class="st17" d="M-1150.5-435l0.2,0.3c1.8-1.4,3.6-3,5.4-4.5l-1.7-3l-3.9,7L-1150.5-435z"/>
		<path class="st17" d="M-1141.9-433.8l-0.1-0.2c-1.5,2-3.1,3.9-4.7,5.7l0.1,0.2l1.6,2.7c1,1.7,1,3.7,0,5.4l-9,15.7
			c-1,1.7-2.8,2.7-4.7,2.7h-18.1c-0.4,0-0.8-0.1-1.2-0.1c-0.2,0-0.3-0.1-0.5-0.1c-1.4,0.7-2.7,1.4-4.1,2c-1.2,0.5-2.4,0.9-3.7,1.2
			l0.1,0.2l0.1,0.2c1.3,2.2,3.7,3.6,6.2,3.6h24c2.6,0,4.9-1.4,6.2-3.6l12-20.8c1.3-2.2,1.3-5,0-7.2L-1141.9-433.8z"/>
	</g>
</g>
<linearGradient id="SVGID_15_" gradientUnits="userSpaceOnUse" x1="-690.2046" y1="614.5916" x2="-626.0846" y2="614.5916" gradientTransform="matrix(1 0 0 -1 0 -78.5532)">
	<stop  offset="0" style="stop-color:#C4C4F7"/>
	<stop  offset="0.1979" style="stop-color:#B9B8F6"/>
	<stop  offset="0.5585" style="stop-color:#9D97F4"/>
	<stop  offset="1" style="stop-color:#7367F0"/>
</linearGradient>
<path class="st18" d="M-679-685c0,0,16.6,13,29.8,7.7c10.3-4.2,11.5-7.8,13.2-9.4c0.8-0.7,1-1.9,0.5-2.9c-0.5-1-0.9-2.5,0.1-4.2
	l-10.1-10c0,0-2.4,2-4.9,0c-2.5-1.9-18.4,26.8-39.7,12.2c0,0,15.3,12.2,42.6-22l21.5,21.5C-626.1-692.2-648.4-653.2-679-685z"/>
<linearGradient id="SVGID_16_" gradientUnits="userSpaceOnUse" x1="-691.7946" y1="630.3862" x2="-625.2046" y2="630.3862" gradientTransform="matrix(1 0 0 -1 0 -78.5532)">
	<stop  offset="0" style="stop-color:#C4C4F7"/>
	<stop  offset="0.1979" style="stop-color:#B9B8F6"/>
	<stop  offset="0.5585" style="stop-color:#9D97F4"/>
	<stop  offset="1" style="stop-color:#7367F0"/>
</linearGradient>
<path class="st19" d="M-691.8-698.6c0,0,12.8,15.3,43.7-25.6l22.9,22.9l-2.8,2.4l-19.7-19.7C-647.6-718.5-676.8-680.4-691.8-698.6z"
	/>
<linearGradient id="SVGID_17_" gradientUnits="userSpaceOnUse" x1="-699.2646" y1="628.447" x2="-669.9846" y2="628.447" gradientTransform="matrix(1 0 0 -1 0 -78.5532)">
	<stop  offset="0" style="stop-color:#C4C4F7"/>
	<stop  offset="0.1979" style="stop-color:#B9B8F6"/>
	<stop  offset="0.5585" style="stop-color:#9D97F4"/>
	<stop  offset="1" style="stop-color:#7367F0"/>
</linearGradient>
<path class="st20" d="M-699.3-713.1c0,0,8.5,26.9,29.3,7.4c0,0-5.5-5.2-5.6-9.6C-675.6-715.4-692.3-710.7-699.3-713.1z"/>
<g>
	<path class="st8" d="M-650-691.7l-0.3,0.3c0.4,0.5,0.6,1.1,0.6,1.8l-1.3,0c0-0.3-0.1-0.6-0.3-0.8l-1,1c0,0,0,0.1,0,0.1
		c0.2,0.3,0.4,0.7,0.4,1.2c0,0.5-0.3,1.1-0.9,1.5l0,0l0,0c-0.8,0.5-1.6,0.4-2.2,0l-0.3,0.3l-0.5-0.5l0.3-0.3
		c-0.5-0.7-0.7-1.5-0.4-2.4l1.2,0.3c-0.1,0.4,0,0.8,0.2,1.2l1-1c-0.1-0.2-0.2-0.3-0.3-0.5c-0.2-0.4-0.2-1,0.1-1.5l0,0l0,0
		c0.4-0.5,0.8-0.9,1.4-1s1,0,1.4,0.2c0.1,0,0.1,0.1,0.2,0.1l0.3-0.3L-650-691.7z M-654.1-687.6c0.1,0.1,0.2,0.1,0.4,0
		c0.3-0.1,0.5-0.2,0.6-0.5c0-0.1,0-0.3-0.1-0.4L-654.1-687.6z M-652.1-691c-0.1,0-0.3,0.1-0.4,0.2c-0.1,0.2-0.2,0.4-0.1,0.6
		c0,0,0,0.1,0,0.1l0.8-0.9C-651.9-691-652-691-652.1-691z"/>
</g>
<g>
	<path class="st21" d="M-650.1-691.9l-0.3,0.3c0.4,0.5,0.6,1.1,0.6,1.8l-1.3,0c0-0.3-0.1-0.6-0.3-0.8l-1,1c0,0,0,0,0,0.1
		c0.2,0.3,0.4,0.7,0.4,1.2c0,0.5-0.3,1.1-0.9,1.5l0,0l0,0c-0.8,0.5-1.6,0.4-2.2-0.1l-0.3,0.3l-0.5-0.5l0.3-0.3
		c-0.5-0.6-0.7-1.5-0.4-2.4l1.2,0.3c-0.1,0.4,0,0.9,0.2,1.2l1-1c-0.1-0.2-0.2-0.3-0.3-0.6c-0.2-0.4-0.2-1,0.1-1.5l0,0l0,0
		c0.4-0.5,0.8-0.9,1.4-1s1,0,1.4,0.2c0.1,0,0.1,0.1,0.2,0.1l0.3-0.3L-650.1-691.9z M-654.2-687.8c0.1,0.1,0.2,0.1,0.4,0
		c0.3-0.1,0.5-0.2,0.6-0.5c0-0.1,0-0.3-0.1-0.4L-654.2-687.8z M-652.3-691.1c-0.2,0-0.3,0.1-0.4,0.2c-0.1,0.2-0.2,0.4-0.1,0.6
		c0,0,0,0,0,0.1l0.8-0.9C-652.1-691.2-652.2-691.2-652.3-691.1z"/>
</g>
<linearGradient id="SVGID_18_" gradientUnits="userSpaceOnUse" x1="-773.8546" y1="615.5016" x2="-709.7346" y2="615.5016" gradientTransform="matrix(1 0 0 -1 0 -78.5532)">
	<stop  offset="0" style="stop-color:#C4C4F7"/>
	<stop  offset="0.1979" style="stop-color:#B9B8F6"/>
	<stop  offset="0.5585" style="stop-color:#9D97F4"/>
	<stop  offset="1" style="stop-color:#7367F0"/>
</linearGradient>
<path class="st22" d="M-762.7-685.9c0,0,16.6,13,29.8,7.7c10.3-4.2,11.5-7.8,13.2-9.4c0.8-0.7,1-1.9,0.5-2.9c-0.5-1-0.9-2.5,0.1-4.2
	l-10.1-10c0,0-2.4,1.9-4.9,0c-2.5-1.9-18.4,26.8-39.7,12.2c0,0,15.3,12.2,42.6-22l21.5,21.6C-709.7-693.1-732-654.1-762.7-685.9z"/>
<ellipse transform="matrix(0.7071 -0.7071 0.7071 0.7071 296.1929 -663.5173)" class="st23" cx="-652.8" cy="-689.3" rx="7.1" ry="6"/>
<path class="st1" d="M-328.6-754.7l-35.7-20.6c-4-2.3-8.8-2.3-12.8,0l-35.7,20.6c-4,2.3-6.4,6.5-6.4,11.1v41.2
	c0,4.6,2.4,8.8,6.4,11.1l35.7,20.6c4,2.3,8.8,2.3,12.8,0l35.7-20.6c4-2.3,6.4-6.5,6.4-11.1v-41.2
	C-322.2-748.2-324.7-752.5-328.6-754.7z"/>
<path class="st21" d="M-328.6-754.7l-35.7-20.6c-4-2.3-8.8-2.3-12.8,0l-35.7,20.6c-4,2.3-6.4,6.5-6.4,11.1v41.2
	c0,4.6,2.4,8.8,6.4,11.1l35.7,20.6c4,2.3,8.8,2.3,12.8,0l35.7-20.6c4-2.3,6.4-6.5,6.4-11.1v-41.2
	C-322.2-748.2-324.7-752.5-328.6-754.7z"/>
<g>
	<path class="st24" d="M-1143,840.6l-29.1-16.8c-3.2-1.9-7.2-1.9-10.4,0l-29.1,16.8c-3.2,1.9-5.2,5.3-5.2,9v33.6c0,3.7,2,7.2,5.2,9
		l29.1,16.8c3.2,1.9,7.2,1.9,10.4,0l29.1-16.8c3.2-1.9,5.2-5.3,5.2-9v-33.6C-1137.8,845.9-1139.8,842.5-1143,840.6z"/>
	<g>
		<path class="st17" d="M-1190.1,879.4c0,0,12.9,10,25,5.3c7.8-3.3,9.2-7.6,10.5-8.8c0.6-0.6,0.8-1.5,0.4-2.3
			c-0.4-0.7-0.7-2.9,0.1-4.3l-8.2-7.9c0,0-2,1.4-4-0.1s-15.5,20.3-31.1,12.8c0,0,13.4,6.2,32.7-19.7l17,17.2
			C-1147.7,871.7-1164.4,901.8-1190.1,879.4z"/>
		<path class="st17" d="M-1199.4,868.7c0,0,12.4,5.6,34.3-23.8l19.2,18.9l-1.9,1.7l-17.1-17.1
			C-1164.9,848.4-1185.8,876.2-1199.4,868.7z"/>
		<path class="st17" d="M-1208,854.7c0,0,7.1,19.8,22.9,5.6c0,0-4.4-3.9-4.5-7.5C-1189.6,852.8-1198.7,856.2-1208,854.7z"/>
		
			<ellipse transform="matrix(0.7071 -0.7071 0.7071 0.7071 -960.6518 -570.7158)" class="st17" cx="-1169.2" cy="874.3" rx="5.4" ry="4.6"/>
	</g>
</g>
<g>
	<g>
		<g>
			
				<text transform="matrix(1 0 0 1 -1202.9934 -19.8027)" class="st1" style="font-family:'Montserrat-Black'; font-size:40.052px;">TAX MEDIA</text>
		</g>
	</g>
	<g>
		<g>
			
				<text transform="matrix(1 0 0 1 -1205.095 0)" class="st17" style="font-family:'Montserrat-SemiBold'; font-size:15.1314px; letter-spacing:3;">PAY YOUR TAX EASILY</text>
		</g>
	</g>
</g>
<g>
	<path class="st25" d="M-1016.7-196.1l-48.8-28.2c-5.4-3.1-12.1-3.1-17.5,0l-48.8,28.2c-5.4,3.1-8.7,8.9-8.7,15.1v56.3
		c0,6.2,3.3,12,8.7,15.1l48.8,28.2c5.4,3.1,12.1,3.1,17.5,0l48.8-28.2c5.4-3.1,8.7-8.9,8.7-15.1V-181
		C-1008-187.2-1011.3-193-1016.7-196.1z"/>
	<g>
		
			<linearGradient id="SVGID_19_" gradientUnits="userSpaceOnUse" x1="-1107.7646" y1="66.4065" x2="-1024.5447" y2="66.4065" gradientTransform="matrix(1 0 0 -1 0 -78.5532)">
			<stop  offset="0" style="stop-color:#C4C4F7"/>
			<stop  offset="0.1979" style="stop-color:#B9B8F6"/>
			<stop  offset="0.5585" style="stop-color:#9D97F4"/>
			<stop  offset="1" style="stop-color:#7367F0"/>
		</linearGradient>
		<path class="st26" d="M-1095.5-131c0,0,21.6,16.8,41.9,8.9c13.1-5.6,15.5-12.4,17.8-14.5c1-1,1.3-2.5,0.6-3.8
			c-0.7-1.2-1.1-4.9,0.2-7.1l-14.2-13.6c0,0-3.4,2.4-6.7-0.1c-3.3-2.5-22.8,33.5-51.8,21.4c0,0,22.4,10.4,54.7-32.9l28.5,28.8
			C-1024.6-143.9-1052.5-93.7-1095.5-131z"/>
		
			<linearGradient id="SVGID_20_" gradientUnits="userSpaceOnUse" x1="-1111.1046" y1="89.349" x2="-1021.5946" y2="89.349" gradientTransform="matrix(1 0 0 -1 0 -78.5532)">
			<stop  offset="0" style="stop-color:#C4C4F7"/>
			<stop  offset="0.1979" style="stop-color:#B9B8F6"/>
			<stop  offset="0.5585" style="stop-color:#9D97F4"/>
			<stop  offset="1" style="stop-color:#7367F0"/>
		</linearGradient>
		<path class="st27" d="M-1111.1-149c0,0,20.8,9.3,57.4-39.9l32.1,31.7l-3.2,2.8l-28.6-28.6C-1053.4-183.1-1088.4-136.5-1111.1-149z
			"/>
		
			<linearGradient id="SVGID_21_" gradientUnits="userSpaceOnUse" x1="-1125.4346" y1="86.4984" x2="-1087.1547" y2="86.4984" gradientTransform="matrix(1 0 0 -1 0 -78.5532)">
			<stop  offset="0" style="stop-color:#C4C4F7"/>
			<stop  offset="0.1979" style="stop-color:#B9B8F6"/>
			<stop  offset="0.5585" style="stop-color:#9D97F4"/>
			<stop  offset="1" style="stop-color:#7367F0"/>
		</linearGradient>
		<path class="st28" d="M-1125.4-172.5c0,0,11.9,33.2,38.3,9.3c0,0-7.4-6.6-7.5-12.5C-1094.7-175.6-1109.9-169.9-1125.4-172.5z"/>
		
			<linearGradient id="SVGID_22_" gradientUnits="userSpaceOnUse" x1="-1069.0168" y1="61.1547" x2="-1052.2423" y2="61.1547" gradientTransform="matrix(1 0 0 -1 0 -78.5532)">
			<stop  offset="0" style="stop-color:#C4C4F7"/>
			<stop  offset="0.1979" style="stop-color:#B9B8F6"/>
			<stop  offset="0.5585" style="stop-color:#9D97F4"/>
			<stop  offset="1" style="stop-color:#7367F0"/>
		</linearGradient>
		<path class="st29" d="M-1055.2-134.3c3.5-3.5,4-8.8,1-11.8c-3-3-8.3-2.6-11.8,1c-3.5,3.5-4,8.8-1,11.8
			C-1064-130.3-1058.7-130.7-1055.2-134.3z"/>
	</g>
</g>
<g>
	<path class="st25" d="M215.8-273.9l-73.3-42.3c-8.1-4.7-18.1-4.7-26.2,0l-73.3,42.3c-8.1,4.7-13.1,13.3-13.1,22.7v84.7
		c0,9.4,5,18,13.1,22.7l73.3,42.3c8.1,4.7,18.1,4.7,26.2,0l73.3-42.3c8.1-4.7,13.1-13.3,13.1-22.7v-84.7
		C229-260.6,223.9-269.2,215.8-273.9z"/>
	<g>
		
			<linearGradient id="SVGID_23_" gradientUnits="userSpaceOnUse" x1="78.921" y1="118.5104" x2="204.016" y2="118.5104" gradientTransform="matrix(1 0 0 -1 0 -78.5532)">
			<stop  offset="0" style="stop-color:#C4C4F7"/>
			<stop  offset="0.1979" style="stop-color:#B9B8F6"/>
			<stop  offset="0.5585" style="stop-color:#9D97F4"/>
			<stop  offset="1" style="stop-color:#7367F0"/>
		</linearGradient>
		<path class="st30" d="M97.4-176.1c0,0,32.5,25.3,63,13.4c19.6-8.4,23.3-18.6,26.7-21.8c1.6-1.5,1.9-3.8,0.9-5.7
			c-1-1.9-1.7-7.4,0.3-10.7l-21.3-20.5c0,0-5.1,3.6-10.1-0.2s-34.2,50.3-77.9,32.2c0,0,33.6,15.6,82.3-49.4l42.8,43.2
			C204-195.5,162-120,97.4-176.1z"/>
		
			<linearGradient id="SVGID_24_" gradientUnits="userSpaceOnUse" x1="73.9004" y1="152.9972" x2="208.4505" y2="152.9972" gradientTransform="matrix(1 0 0 -1 0 -78.5532)">
			<stop  offset="0" style="stop-color:#C4C4F7"/>
			<stop  offset="0.1979" style="stop-color:#B9B8F6"/>
			<stop  offset="0.5585" style="stop-color:#9D97F4"/>
			<stop  offset="1" style="stop-color:#7367F0"/>
		</linearGradient>
		<path class="st31" d="M73.9-203.2c0,0,31.3,14,86.3-60l48.3,47.6l-4.8,4.2l-43-43C160.7-254.3,108.1-184.3,73.9-203.2z"/>
		
			<linearGradient id="SVGID_25_" gradientUnits="userSpaceOnUse" x1="52.3598" y1="148.7123" x2="109.9017" y2="148.7123" gradientTransform="matrix(1 0 0 -1 0 -78.5532)">
			<stop  offset="0" style="stop-color:#C4C4F7"/>
			<stop  offset="0.1979" style="stop-color:#B9B8F6"/>
			<stop  offset="0.5585" style="stop-color:#9D97F4"/>
			<stop  offset="1" style="stop-color:#7367F0"/>
		</linearGradient>
		<path class="st32" d="M52.4-238.4c0,0,17.9,49.9,57.5,14.1c0,0-11.1-10-11.3-18.8C98.6-243.2,75.7-234.6,52.4-238.4z"/>
		
			<linearGradient id="SVGID_26_" gradientUnits="userSpaceOnUse" x1="137.1661" y1="110.6159" x2="162.3812" y2="110.6159" gradientTransform="matrix(1 0 0 -1 0 -78.5532)">
			<stop  offset="0" style="stop-color:#C4C4F7"/>
			<stop  offset="0.1979" style="stop-color:#B9B8F6"/>
			<stop  offset="0.5585" style="stop-color:#9D97F4"/>
			<stop  offset="1" style="stop-color:#7367F0"/>
		</linearGradient>
		<path class="st33" d="M157.9-181c5.3-5.3,6-13.3,1.5-17.8c-4.5-4.5-12.5-3.8-17.8,1.5c-5.3,5.3-6,13.3-1.5,17.8
			C144.7-175.1,152.6-175.7,157.9-181z"/>
	</g>
</g>
<g>
	<path class="st24" d="M-1143,121.9l-29.1-16.8c-3.2-1.9-7.2-1.9-10.4,0l-29.1,16.8c-3.2,1.9-5.2,5.3-5.2,9v33.6c0,3.7,2,7.2,5.2,9
		l29.1,16.8c3.2,1.9,7.2,1.9,10.4,0l29.1-16.8c3.2-1.9,5.2-5.3,5.2-9v-33.6C-1137.8,127.2-1139.8,123.7-1143,121.9z"/>
	<g>
		<path class="st17" d="M-1190.1,160.7c0,0,12.9,10,25,5.3c7.8-3.3,9.2-7.6,10.5-8.8c0.6-0.6,0.8-1.5,0.4-2.3
			c-0.4-0.7-0.7-2.9,0.1-4.3l-8.2-7.9c0,0-2,1.4-4-0.1c-2-1.5-15.5,20.4-31.1,12.8c0,0,13.4,6.2,32.7-19.6l17,17.2
			C-1147.7,153-1164.4,183.1-1190.1,160.7z"/>
		<path class="st17" d="M-1199.4,150c0,0,12.4,5.6,34.3-23.9l19.2,18.9l-1.9,1.7l-17.1-17.1C-1164.9,129.7-1185.8,157.5-1199.4,150z
			"/>
		<path class="st17" d="M-1208,136c0,0,7.1,19.8,22.9,5.6c0,0-4.4-4-4.5-7.5C-1189.6,134.1-1198.7,137.5-1208,136z"/>
		
			<ellipse transform="matrix(0.7071 -0.7071 0.7071 0.7071 -452.4428 -781.22)" class="st17" cx="-1169.2" cy="155.5" rx="5.4" ry="4.6"/>
	</g>
</g>
<g>
	<path class="st17" d="M-628.3-849.7c6.7,2.3,22.8-2.2,22.8-2.2c0.1,4.2,5.4,9.3,5.4,9.3C-620.1-823.7-628.3-849.7-628.3-849.7z"/>
	<path class="st17" d="M-608.9-822.6c0,0,16,12.5,28.7,7.4c10-4,11-7.5,12.7-9.1c0.8-0.7,0.9-1.9,0.5-2.8c-0.5-0.9-0.9-2.4,0.1-4
		l-9.7-9.7c0,0-2.3,1.9-4.8,0c-2.4-1.8-17.4,25.2-37.6,12.1c-0.4-0.2-0.6-0.4-0.6-0.4c0.2,0.1,0.4,0.3,0.6,0.4
		c3,1.7,16.9,10.3,40.4-21l20.7,20.7C-557.9-829-580.9-792.9-608.9-822.6z"/>
	
		<ellipse transform="matrix(0.7071 -0.7071 0.7071 0.7071 413.6413 -654.8678)" class="st17" cx="-583.7" cy="-826.7" rx="6.8" ry="5.8"/>
	<path class="st17" d="M-559.7-836l-18.9-18.9c0,0-28,36.7-42.5,19.2c0.5,0.5,12.9,13.9,42-24.6l22,22L-559.7-836z"/>
	
		<linearGradient id="SVGID_27_" gradientUnits="userSpaceOnUse" x1="-614.9946" y1="751.4174" x2="-559.6446" y2="751.4174" gradientTransform="matrix(1 0 0 -1 0 -78.5532)">
		<stop  offset="0" style="stop-color:#C4C4F7"/>
		<stop  offset="0.1979" style="stop-color:#B9B8F6"/>
		<stop  offset="0.5585" style="stop-color:#9D97F4"/>
		<stop  offset="1" style="stop-color:#7367F0"/>
	</linearGradient>
	<path class="st34" d="M-606.9-821c0,0,14.4,11.2,27.9,6c8.7-3.7,10.6-7.8,12.1-9.2c0.7-0.6,0.8-1.7,0.4-2.5
		c-0.4-0.8-0.8-3.3,0.1-4.8l-10.5-10.3c0,0-2.3,1.6-4.5-0.1s-15.6,22.9-33.7,14.5c0,0,11.4,8.9,36.7-20.9l18.6,18.6
		C-559.6-829.6-578.3-796.1-606.9-821z"/>
	
		<linearGradient id="SVGID_28_" gradientUnits="userSpaceOnUse" x1="-617.3146" y1="766.9873" x2="-557.6746" y2="766.9873" gradientTransform="matrix(1 0 0 -1 0 -78.5532)">
		<stop  offset="0" style="stop-color:#C4C4F7"/>
		<stop  offset="0.1979" style="stop-color:#B9B8F6"/>
		<stop  offset="0.5585" style="stop-color:#9D97F4"/>
		<stop  offset="1" style="stop-color:#7367F0"/>
	</linearGradient>
	<path class="st35" d="M-617.3-833c0,0,13.9,6.2,38.2-26.6l21.4,21.1l-2.1,1.9l-19-19C-578.8-855.6-602.2-824.6-617.3-833z"/>
	
		<linearGradient id="SVGID_29_" gradientUnits="userSpaceOnUse" x1="-626.8546" y1="765.0793" x2="-601.3446" y2="765.0793" gradientTransform="matrix(1 0 0 -1 0 -78.5532)">
		<stop  offset="0" style="stop-color:#C4C4F7"/>
		<stop  offset="0.1979" style="stop-color:#B9B8F6"/>
		<stop  offset="0.5585" style="stop-color:#9D97F4"/>
		<stop  offset="1" style="stop-color:#7367F0"/>
	</linearGradient>
	<path class="st36" d="M-626.9-848.6c0,0,7.9,22.1,25.5,6.2c0,0-4.9-4.4-5-8.3C-606.4-850.7-616.5-846.9-626.9-848.6z"/>
	
		<linearGradient id="SVGID_30_" gradientUnits="userSpaceOnUse" x1="-589.2661" y1="748.2004" x2="-578.093" y2="748.2004" gradientTransform="matrix(1 0 0 -1 0 -78.5532)">
		<stop  offset="0" style="stop-color:#C4C4F7"/>
		<stop  offset="0.1979" style="stop-color:#B9B8F6"/>
		<stop  offset="0.5585" style="stop-color:#9D97F4"/>
		<stop  offset="1" style="stop-color:#7367F0"/>
	</linearGradient>
	<path class="st37" d="M-580.1-823.1c2.3-2.3,2.6-5.9,0.6-7.9c-2-2-5.5-1.7-7.9,0.7c-2.3,2.3-2.6,5.9-0.6,7.9
		C-585.9-820.5-582.4-820.8-580.1-823.1z"/>
</g>
<rect x="-1989.2" y="-1762.4" class="st38" width="311.4" height="1590.8"/>
<g>
	<g>
		
			<linearGradient id="SVGID_31_" gradientUnits="userSpaceOnUse" x1="-400.9442" y1="-537.0907" x2="-511.065" y2="-473.5125" gradientTransform="matrix(1 0 0 -1 0 -78.5532)">
			<stop  offset="0" style="stop-color:#C4C4F7"/>
			<stop  offset="0.1979" style="stop-color:#B9B8F6"/>
			<stop  offset="0.5585" style="stop-color:#9D97F4"/>
			<stop  offset="1" style="stop-color:#7367F0"/>
		</linearGradient>
		<path class="st39" d="M-387.3,418.6l-9.9-17.2l-4.4-7.5l-13-22.5c-2.9-5-8.3-8.2-14.1-8.2h-54.6c-5.8,0-11.2,3.1-14.1,8.2
			l-27.3,47.3c-0.4,0.7-0.7,1.3-1,2c-1.9,4.6-1.6,9.9,1,14.3l5.2,8.9l4.4,7.6l17.5,30.2l0.3,0.5c2.9,5,8.3,8.2,14.1,8.2h54.6
			c5.8,0,11.2-3.1,14.1-8.2l27.3-47.3C-384.4,429.9-384.4,423.6-387.3,418.6z M-404.3,432.9l-20.5,35.6c-2.2,3.8-6.2,6.1-10.6,6.1
			h-41.1c-0.9,0-1.8-0.1-2.7-0.3c-3.3-0.8-6.2-2.8-7.9-5.8l-11.2-19.4l-3.6-6.3l-5.7-9.9c-1.9-3.2-2.1-7.1-0.9-10.5
			c0.2-0.6,0.5-1.2,0.9-1.8l20.5-35.6c2.2-3.8,6.2-6.1,10.6-6.1h41.1c4.4,0,8.4,2.3,10.6,6.1l1.6,2.7l6.3,11l3.1,5.4l6,10.3l3.6,6.2
			C-402.1,424.4-402.1,429.1-404.3,432.9z"/>
	</g>
	
		<linearGradient id="SVGID_32_" gradientUnits="userSpaceOnUse" x1="-495.0746" y1="-503.1966" x2="-440.8722" y2="-503.1966" gradientTransform="matrix(1 0 0 -1 0 -78.5532)">
		<stop  offset="0" style="stop-color:#C4C4F7"/>
		<stop  offset="1" style="stop-color:#7367F0"/>
	</linearGradient>
	<path class="st40" d="M-464.6,448l-14.7,6.6l-15.8-28c0,0,40.9-3.3,50.2-32c0,0,19.3,28.7-27.3,41.2L-464.6,448z"/>
	
		<linearGradient id="SVGID_33_" gradientUnits="userSpaceOnUse" x1="-464.5846" y1="-504.9316" x2="-433.7194" y2="-504.9316" gradientTransform="matrix(1 0 0 -1 0 -78.5532)">
		<stop  offset="0" style="stop-color:#C4C4F7"/>
		<stop  offset="1" style="stop-color:#7367F0"/>
	</linearGradient>
	<path class="st41" d="M-455.9,452.8l-8.7-14.8c0,0,35.5-7.2,25.1-38.1c0,0,19.1,27.2-12.1,41.2l5.5,7.3L-455.9,452.8z"/>
	
		<linearGradient id="SVGID_34_" gradientUnits="userSpaceOnUse" x1="-446.0646" y1="-508.4366" x2="-422.8884" y2="-508.4366" gradientTransform="matrix(1 0 0 -1 0 -78.5532)">
		<stop  offset="0" style="stop-color:#C4C4F7"/>
		<stop  offset="1" style="stop-color:#7367F0"/>
	</linearGradient>
	<path class="st42" d="M-438.7,451.4l-7.4-10c0,0,23.6-10.4,12.3-33C-433.7,408.4-406.3,431.6-438.7,451.4z"/>
</g>
<g>
	<g>
		<g>
			
				<text transform="matrix(1 0 0 1 -1311.0914 707.3475)" class="st1" style="font-family:'Montserrat-Black'; font-size:72.8643px; letter-spacing:1;">TAX MEDIA</text>
		</g>
	</g>
	<g>
		<g>
			
				<text transform="matrix(1 0 0 1 -1314.9147 743.3749)" class="st17" style="font-family:'Montserrat-SemiBold'; font-size:27.5277px; letter-spacing:7;">PAY YOUR TAX EASILY</text>
		</g>
	</g>
</g>
<g>
	<g>
		
			<linearGradient id="SVGID_35_" gradientUnits="userSpaceOnUse" x1="-975.902" y1="-601.7626" x2="-1176.2172" y2="-486.1105" gradientTransform="matrix(1 0 0 -1 0 -78.5532)">
			<stop  offset="0" style="stop-color:#C4C4F7"/>
			<stop  offset="0.1979" style="stop-color:#B9B8F6"/>
			<stop  offset="0.5585" style="stop-color:#9D97F4"/>
			<stop  offset="1" style="stop-color:#7367F0"/>
		</linearGradient>
		<path class="st43" d="M-951.1,450.5l-18.1-31.3l-7.9-13.7l-23.7-41c-5.3-9.2-15.1-14.8-25.7-14.8h-99.3
			c-10.6,0-20.4,5.7-25.7,14.8l-49.6,86c-0.7,1.2-1.3,2.4-1.8,3.7c-3.4,8.4-2.8,18,1.8,26l9.4,16.3l8,13.8l31.8,55l0.5,0.9
			c5.3,9.2,15.1,14.8,25.7,14.8h99.3c10.6,0,20.4-5.7,25.7-14.8l49.6-86C-945.8,471-945.8,459.7-951.1,450.5z M-982,476.6
			l-37.4,64.7c-4,6.9-11.4,11.2-19.4,11.2h-74.7c-1.7,0-3.4-0.2-5-0.6c-6-1.4-11.2-5.2-14.4-10.6l-20.4-35.4l-6.6-11.4l-10.3-18
			c-3.4-5.8-3.9-12.8-1.5-19.1c0.4-1.1,0.9-2.2,1.5-3.3l37.4-64.7c4-6.9,11.4-11.2,19.3-11.2h74.7c8,0,15.4,4.2,19.3,11.2l2.8,4.9
			l11.5,20l5.7,9.8l10.8,18.7l6.5,11.2C-978,461.1-978,469.6-982,476.6z"/>
	</g>
	
		<linearGradient id="SVGID_36_" gradientUnits="userSpaceOnUse" x1="-1147.1346" y1="-540.1216" x2="-1048.5402" y2="-540.1216" gradientTransform="matrix(1 0 0 -1 0 -78.5532)">
		<stop  offset="0" style="stop-color:#C4C4F7"/>
		<stop  offset="1" style="stop-color:#7367F0"/>
	</linearGradient>
	<path class="st44" d="M-1091.7,504.1l-26.7,12.1l-28.8-51c0,0,74.3-6,91.4-58.2c0,0,35.1,52.2-49.6,75L-1091.7,504.1z"/>
	
		<linearGradient id="SVGID_37_" gradientUnits="userSpaceOnUse" x1="-1091.6647" y1="-543.2716" x2="-1035.5129" y2="-543.2716" gradientTransform="matrix(1 0 0 -1 0 -78.5532)">
		<stop  offset="0" style="stop-color:#C4C4F7"/>
		<stop  offset="1" style="stop-color:#7367F0"/>
	</linearGradient>
	<path class="st45" d="M-1075.8,512.8l-15.9-27c0,0,64.7-13.1,45.6-69.3c0,0,34.7,49.4-21.9,75l10,13.2L-1075.8,512.8z"/>
	
		<linearGradient id="SVGID_38_" gradientUnits="userSpaceOnUse" x1="-1057.9646" y1="-549.6566" x2="-1015.8049" y2="-549.6566" gradientTransform="matrix(1 0 0 -1 0 -78.5532)">
		<stop  offset="0" style="stop-color:#C4C4F7"/>
		<stop  offset="1" style="stop-color:#7367F0"/>
	</linearGradient>
	<path class="st46" d="M-1044.5,510.2l-13.5-18.2c0,0,43-19,22.5-60.1C-1035.5,432-985.7,474.2-1044.5,510.2z"/>
</g>
<g>
	<g>
		
			<linearGradient id="SVGID_39_" gradientUnits="userSpaceOnUse" x1="225.9996" y1="-251.4526" x2="32.7906" y2="-139.9033" gradientTransform="matrix(1 0 0 -1 0 -78.5532)">
			<stop  offset="0" style="stop-color:#C4C4F7"/>
			<stop  offset="0.1979" style="stop-color:#B9B8F6"/>
			<stop  offset="0.5585" style="stop-color:#9D97F4"/>
			<stop  offset="1" style="stop-color:#7367F0"/>
		</linearGradient>
		<path class="st47" d="M249.9,102.8l-17.4-30.2l-7.6-13.2l-22.8-39.5C197,11,187.5,5.6,177.3,5.6H81.5c-10.2,0-19.7,5.4-24.8,14.3
			L8.9,102.8c-0.7,1.2-1.2,2.3-1.7,3.5c-3.3,8.1-2.7,17.4,1.7,25.1l9.1,15.7l7.7,13.3l30.6,53.1l0.5,0.8
			c5.1,8.9,14.6,14.3,24.8,14.3h95.7c10.2,0,19.7-5.4,24.8-14.3l47.9-82.9C255,122.6,255,111.7,249.9,102.8z M220.1,127.9l-36,62.4
			c-3.8,6.7-11,10.8-18.7,10.8h-72c-1.6,0-3.2-0.2-4.8-0.5c-5.8-1.3-10.9-5-13.9-10.2L55,156.2l-6.4-11l-10-17.3
			c-3.3-5.6-3.8-12.4-1.5-18.4c0.4-1.1,0.9-2.1,1.5-3.2l36-62.4c3.8-6.7,11-10.8,18.7-10.8h72c7.7,0,14.8,4.1,18.7,10.8l2.7,4.8
			L198,68l5.5,9.5l10.4,18.1l6.3,10.8C223.9,113,223.9,121.2,220.1,127.9z"/>
	</g>
	
		<linearGradient id="SVGID_40_" gradientUnits="userSpaceOnUse" x1="60.8415" y1="-191.9984" x2="155.9383" y2="-191.9984" gradientTransform="matrix(1 0 0 -1 0 -78.5532)">
		<stop  offset="0" style="stop-color:#C4C4F7"/>
		<stop  offset="1" style="stop-color:#7367F0"/>
	</linearGradient>
	<path class="st48" d="M114.3,154.5l-25.8,11.6l-27.7-49.2c0,0,71.7-5.8,88.1-56.1c0,0,33.9,50.3-47.9,72.3L114.3,154.5z"/>
	
		<linearGradient id="SVGID_41_" gradientUnits="userSpaceOnUse" x1="114.3437" y1="-195.0366" x2="168.5034" y2="-195.0366" gradientTransform="matrix(1 0 0 -1 0 -78.5532)">
		<stop  offset="0" style="stop-color:#C4C4F7"/>
		<stop  offset="1" style="stop-color:#7367F0"/>
	</linearGradient>
	<path class="st49" d="M129.6,162.9l-15.3-26c0,0,62.4-12.6,44-66.8c0,0,33.5,47.7-21.1,72.4l9.7,12.7L129.6,162.9z"/>
	
		<linearGradient id="SVGID_42_" gradientUnits="userSpaceOnUse" x1="146.8482" y1="-201.1951" x2="187.5123" y2="-201.1951" gradientTransform="matrix(1 0 0 -1 0 -78.5532)">
		<stop  offset="0" style="stop-color:#C4C4F7"/>
		<stop  offset="1" style="stop-color:#7367F0"/>
	</linearGradient>
	<path class="st50" d="M159.8,160.4l-13-17.5c0,0,41.5-18.3,21.7-58C168.5,84.9,216.6,125.6,159.8,160.4z"/>
</g>
<g>
	<g>
		<path class="st17" d="M-520.7,722.7l-5.6-9.7l-2.4-4.2l-7.3-12.6c-1.6-2.8-4.7-4.6-7.9-4.6h-30.6c-3.3,0-6.3,1.7-7.9,4.6
			l-15.3,26.5c-0.2,0.4-0.4,0.8-0.5,1.1c-1.1,2.6-0.9,5.6,0.5,8l2.9,5l2.5,4.3l9.8,17l0.2,0.3c1.6,2.8,4.7,4.6,7.9,4.6h30.6
			c3.3,0,6.3-1.7,7.9-4.6l15.3-26.5C-519,729-519,725.5-520.7,722.7z M-530.2,730.7l-11.5,20c-1.2,2.1-3.5,3.4-6,3.4h-23
			c-0.5,0-1-0.1-1.5-0.2c-1.8-0.4-3.5-1.6-4.4-3.3l-6.3-10.9l-2-3.5l-3.2-5.5c-1-1.8-1.2-4-0.5-5.9c0.1-0.3,0.3-0.7,0.5-1l11.5-20
			c1.2-2.1,3.5-3.4,6-3.4h23.1c2.5,0,4.7,1.3,6,3.4l0.9,1.5l3.6,6.2l1.8,3l3.3,5.8l2,3.5C-529,726-529,728.6-530.2,730.7z"/>
	</g>
	<path class="st17" d="M-564,739.2l-8.2,3.7l-8.9-15.7c0,0,22.9-1.8,28.2-18c0,0,10.8,16.1-15.3,23.1L-564,739.2z"/>
	<path class="st17" d="M-559.1,741.9l-4.9-8.3c0,0,20-4,14.1-21.4c0,0,10.7,15.2-6.8,23.1l3.1,4.1L-559.1,741.9z"/>
	<path class="st17" d="M-549.5,741.1l-4.1-5.6c0,0,13.3-5.9,6.9-18.5C-546.7,717-531.3,730-549.5,741.1z"/>
</g>
<g>
	<g>
		<g>
			<text transform="matrix(1 0 0 1 -585.2013 -19.8023)" class="st1" style="font-family:'Montserrat-Black'; font-size:40.052px;">TAX MEDIA</text>
		</g>
	</g>
	<g>
		<g>
			
				<text transform="matrix(1 0 0 1 -587.3029 3.662109e-04)" class="st17" style="font-family:'Montserrat-SemiBold'; font-size:15.1314px; letter-spacing:3;">PAY YOUR TAX EASILY</text>
		</g>
	</g>
</g>
<g>
	<g>
		
			<linearGradient id="SVGID_43_" gradientUnits="userSpaceOnUse" x1="-400.9442" y1="42.4592" x2="-511.065" y2="106.0375" gradientTransform="matrix(1 0 0 -1 0 -78.5532)">
			<stop  offset="0" style="stop-color:#C4C4F7"/>
			<stop  offset="0.1979" style="stop-color:#B9B8F6"/>
			<stop  offset="0.5585" style="stop-color:#9D97F4"/>
			<stop  offset="1" style="stop-color:#7367F0"/>
		</linearGradient>
		<path class="st51" d="M-387.3-161l-9.9-17.2l-4.4-7.5l-13-22.5c-2.9-5.1-8.3-8.2-14.1-8.2h-54.6c-5.8,0-11.2,3.1-14.1,8.2
			l-27.3,47.3c-0.4,0.7-0.7,1.3-1,2c-1.9,4.6-1.6,9.9,1,14.3l5.2,8.9l4.4,7.6l17.5,30.2l0.3,0.5c2.9,5.1,8.3,8.2,14.1,8.2h54.6
			c5.8,0,11.2-3.1,14.1-8.2l27.3-47.3C-384.4-149.7-384.4-155.9-387.3-161z M-404.3-146.7l-20.5,35.6c-2.2,3.8-6.2,6.1-10.6,6.1
			h-41.1c-0.9,0-1.8-0.1-2.7-0.3c-3.3-0.8-6.2-2.8-7.9-5.8l-11.2-19.4l-3.6-6.3l-5.7-9.9c-1.9-3.2-2.1-7.1-0.9-10.5
			c0.2-0.6,0.5-1.2,0.9-1.8l20.5-35.6c2.2-3.8,6.2-6.1,10.6-6.1h41.1c4.4,0,8.4,2.3,10.6,6.1l1.6,2.7l6.3,11l3.1,5.4l6,10.3l3.6,6.2
			C-402.1-155.1-402.1-150.5-404.3-146.7z"/>
	</g>
	
		<linearGradient id="SVGID_44_" gradientUnits="userSpaceOnUse" x1="-495.0746" y1="76.3534" x2="-440.8722" y2="76.3534" gradientTransform="matrix(1 0 0 -1 0 -78.5532)">
		<stop  offset="0" style="stop-color:#C4C4F7"/>
		<stop  offset="1" style="stop-color:#7367F0"/>
	</linearGradient>
	<path class="st52" d="M-464.6-131.5l-14.7,6.6l-15.8-28c0,0,40.9-3.3,50.2-32c0,0,19.3,28.7-27.3,41.2L-464.6-131.5z"/>
	
		<linearGradient id="SVGID_45_" gradientUnits="userSpaceOnUse" x1="-464.5846" y1="74.6184" x2="-433.7194" y2="74.6184" gradientTransform="matrix(1 0 0 -1 0 -78.5532)">
		<stop  offset="0" style="stop-color:#C4C4F7"/>
		<stop  offset="1" style="stop-color:#7367F0"/>
	</linearGradient>
	<path class="st53" d="M-455.9-126.7l-8.7-14.8c0,0,35.5-7.2,25.1-38.1c0,0,19.1,27.2-12.1,41.2l5.5,7.3L-455.9-126.7z"/>
	
		<linearGradient id="SVGID_46_" gradientUnits="userSpaceOnUse" x1="-446.0646" y1="71.1034" x2="-422.8884" y2="71.1034" gradientTransform="matrix(1 0 0 -1 0 -78.5532)">
		<stop  offset="0" style="stop-color:#C4C4F7"/>
		<stop  offset="1" style="stop-color:#7367F0"/>
	</linearGradient>
	<path class="st54" d="M-438.7-128.1l-7.4-10c0,0,23.6-10.4,12.3-33C-433.7-171.2-406.3-148-438.7-128.1z"/>
</g>
<g>
	<g>
		<path class="st17" d="M-520.7,143.1l-5.6-9.7l-2.4-4.2l-7.3-12.6c-1.6-2.8-4.7-4.6-7.9-4.6h-30.6c-3.3,0-6.3,1.7-7.9,4.6
			l-15.3,26.5c-0.2,0.4-0.4,0.8-0.5,1.1c-1.1,2.6-0.9,5.6,0.5,8l2.9,5l2.5,4.3l9.8,17l0.2,0.3c1.6,2.8,4.7,4.6,7.9,4.6h30.6
			c3.3,0,6.3-1.7,7.9-4.6l15.3-26.5C-519,149.5-519,146-520.7,143.1z M-530.2,151.2l-11.5,20c-1.2,2.1-3.5,3.4-6,3.4h-23
			c-0.5,0-1-0.1-1.5-0.2c-1.8-0.4-3.5-1.6-4.4-3.3l-6.3-10.9l-2-3.5l-3.2-5.5c-1-1.8-1.2-4-0.5-5.9c0.1-0.3,0.3-0.7,0.5-1l11.5-20
			c1.2-2.1,3.5-3.4,6-3.4h23.1c2.5,0,4.7,1.3,6,3.4l0.9,1.5l3.6,6.2l1.8,3l3.3,5.8l2,3.5C-529,146.4-529,149-530.2,151.2z"/>
	</g>
	<path class="st17" d="M-564,159.7l-8.2,3.7l-8.9-15.7c0,0,22.9-1.9,28.2-18c0,0,10.8,16.1-15.3,23.1L-564,159.7z"/>
	<path class="st17" d="M-559.1,162.4l-4.9-8.3c0,0,20-4,14.1-21.4c0,0,10.7,15.2-6.8,23.1l3.1,4.1L-559.1,162.4z"/>
	<path class="st17" d="M-549.5,161.6l-4.1-5.6c0,0,13.3-5.9,6.9-18.5C-546.7,137.4-531.3,150.4-549.5,161.6z"/>
</g>
</svg>
