<svg width="220" height="91" viewBox="0 0 220 91" fill="none" xmlns="http://www.w3.org/2000/svg">
<path d="M134.391 54.0803C133.466 53.1146 133.005 51.7873 133.005 50.0984V40.37C133.005 38.2757 133.422 36.6941 134.256 35.629C135.09 34.564 136.4 34.0315 138.183 34.0315C139.739 34.0315 140.99 34.4567 141.939 35.3072C142.888 36.1576 143.365 37.3895 143.365 38.991V42.6273H139.168V39.5077C139.168 38.9036 139.092 38.4824 138.945 38.2559C138.798 38.0254 138.544 37.9101 138.183 37.9101C137.806 37.9101 137.548 38.0413 137.409 38.3035C137.27 38.5658 137.198 38.9513 137.198 39.46V50.0507C137.198 50.6071 137.282 51.0124 137.444 51.2667C137.607 51.5211 137.853 51.6482 138.179 51.6482C138.834 51.6482 139.16 51.1157 139.16 50.0507V46.2436H143.408V50.2256C143.408 53.7624 141.633 55.5308 138.08 55.5308C136.547 55.5308 135.316 55.046 134.391 54.0803Z" fill="white"/>
<path d="M144.59 49.9519V42.7271C144.59 41.0223 145.067 39.6671 146.028 38.6617C146.984 37.6523 148.299 37.1516 149.967 37.1516C151.634 37.1516 152.949 37.6563 153.906 38.6617C154.862 39.6671 155.343 41.0263 155.343 42.7271V49.9519C155.343 53.6715 153.552 55.5314 149.967 55.5314C146.381 55.5314 144.59 53.6715 144.59 49.9519ZM150.725 51.8435C150.888 51.5971 150.971 51.2633 150.971 50.8341V42.0396C150.971 40.9905 150.638 40.4659 149.967 40.4659C149.295 40.4659 148.962 40.9905 148.962 42.0396V50.8341C148.962 51.2593 149.045 51.5971 149.208 51.8435C149.371 52.0899 149.625 52.2131 149.97 52.2131C150.308 52.2131 150.562 52.0899 150.725 51.8435Z" fill="white"/>
<path d="M157.64 54.3278C157.139 53.5251 156.889 52.3289 156.889 50.7393V37.3469H161.209V49.8769C161.209 49.9922 161.209 50.2982 161.209 50.7989C161.209 51.2996 161.285 51.6494 161.444 51.856C161.598 52.0626 161.841 52.162 162.166 52.162C162.607 52.162 162.885 51.9792 163 51.6096C163.115 51.24 163.171 50.7115 163.171 50.024V49.8769L163.195 37.3469H167.467V55.3333H163.171V53.4178C162.877 54.1728 162.532 54.7133 162.138 55.0392C161.745 55.365 161.166 55.532 160.395 55.532C159.057 55.532 158.136 55.1306 157.64 54.3278Z" fill="white"/>
<path d="M169.19 37.3493H173.487V39.6343C173.666 38.8952 173.979 38.2991 174.42 37.842C174.861 37.385 175.452 37.1545 176.187 37.1545C177.398 37.1545 178.295 37.5281 178.875 38.2712C179.455 39.0183 179.745 40.0754 179.745 41.4544V55.3356H175.524V41.8955C175.524 41.5021 175.444 41.1683 175.29 40.8901C175.135 40.6119 174.892 40.4728 174.567 40.4728C174.126 40.4728 173.836 40.6755 173.693 41.0729C173.554 41.4743 173.483 42.0108 173.483 42.6824V55.3356H169.186V37.3493H169.19Z" fill="white"/>
<path d="M181.046 50.1257L181.07 48.699H185.366L185.39 50.8132C185.39 51.2384 185.473 51.5643 185.636 51.7828C185.799 52.0054 186.069 52.1127 186.446 52.1127C187.018 52.1127 187.304 51.6477 187.304 50.7138C187.304 50.0263 187.169 49.4859 186.899 49.0924C186.629 48.699 186.2 48.2817 185.608 47.8406L183.325 46.0722C182.539 45.4682 181.975 44.8403 181.629 44.1925C181.284 43.5447 181.113 42.6307 181.113 41.4544C181.113 40.5364 181.355 39.7535 181.836 39.1097C182.32 38.462 182.96 37.9772 183.762 37.6473C184.564 37.3215 185.457 37.1545 186.438 37.1545C189.924 37.1545 191.667 38.8912 191.667 42.3645V42.7102H187.224V42.0227C187.224 41.5975 187.153 41.2319 187.014 40.9298C186.875 40.6278 186.64 40.4768 186.315 40.4768C186.021 40.4768 185.795 40.5642 185.64 40.7351C185.485 40.906 185.406 41.1405 185.406 41.4345C185.406 42.0903 185.66 42.5989 186.168 42.9566L188.82 44.8959C189.769 45.5993 190.496 46.3663 191.004 47.1929C191.513 48.0195 191.767 49.0646 191.767 50.3244C191.767 51.9935 191.29 53.281 190.341 54.1831C189.392 55.0852 188.066 55.5343 186.363 55.5343C182.821 55.5303 181.046 53.7261 181.046 50.1257Z" fill="white"/>
<path d="M194.154 54.0042C193.352 52.9869 192.951 51.4728 192.951 49.4579V42.2332C192.951 40.58 193.423 39.3163 194.376 38.45C195.325 37.5836 196.651 37.1465 198.355 37.1465C201.809 37.1465 203.537 38.8434 203.537 42.2332V43.5367C203.537 44.8481 203.521 45.9131 203.489 46.7318H197.255V50.221C197.255 50.8449 197.318 51.3297 197.449 51.6834C197.58 52.0371 197.858 52.2119 198.283 52.2119C198.609 52.2119 198.843 52.1126 198.982 51.9178C199.121 51.7231 199.204 51.4966 199.228 51.2423C199.252 50.9879 199.264 50.6144 199.264 50.1256V48.381H203.537V49.4142C203.537 51.5125 203.131 53.0544 202.321 54.0439C201.511 55.0335 200.118 55.5302 198.136 55.5302C196.282 55.5302 194.956 55.0215 194.154 54.0042ZM199.26 44.5938V42.2849C199.26 40.9893 198.942 40.3456 198.303 40.3456C197.584 40.3456 197.223 40.9933 197.223 42.2849V44.5938H199.26Z" fill="white"/>
<path d="M205.078 55.3317V34.1025H209.446V55.3317H205.078Z" fill="white"/>
<path d="M212.13 25.7646H130.32C125.984 25.7646 122.458 29.2936 122.458 33.6332V55.9313C122.458 60.2709 125.984 63.7998 130.32 63.7998H134.097L126.993 68.7633L123.606 71.1318C123.602 71.2034 123.586 71.2709 123.586 71.3425C123.586 72.1969 123.991 72.948 124.614 73.4408L128.661 72.5545L168.658 63.7958H212.138C216.474 63.7958 220 60.2669 220 55.9273V33.6292C219.992 29.2936 216.466 25.7646 212.13 25.7646ZM217.748 55.9273C217.748 59.027 215.231 61.5466 212.134 61.5466H168.412L128.839 70.2099L141.24 61.5466H130.324C127.227 61.5466 124.71 59.027 124.71 55.9273V33.6292C124.71 30.5295 127.227 28.01 130.324 28.01H212.134C215.231 28.01 217.748 30.5295 217.748 33.6292V55.9273Z" fill="white"/>
<path d="M14.6923 54.519C13.8425 53.5692 13.4137 52.0392 13.4137 49.9251V47.8626H17.5631V50.4933C17.5631 51.5425 17.8967 52.067 18.5677 52.067C18.945 52.067 19.207 51.9558 19.3539 51.7372C19.5009 51.5147 19.5763 51.1451 19.5763 50.6205C19.5763 49.933 19.4929 49.3647 19.3301 48.9117C19.1673 48.4626 18.9569 48.0851 18.7027 47.7831C18.4486 47.4811 17.9959 47.0081 17.3408 46.3723L15.5261 44.5562C14.1165 43.1812 13.4137 41.6552 13.4137 39.9861C13.4137 38.1859 13.8267 36.8109 14.6526 35.869C15.4785 34.9272 16.6856 34.4583 18.2739 34.4583C20.1719 34.4583 21.5379 34.963 22.3717 35.9684C23.2056 36.9778 23.6225 38.5515 23.6225 40.6974H19.3261L19.3023 39.2469C19.3023 38.9687 19.2229 38.7462 19.068 38.5833C18.9132 38.4203 18.6948 38.3369 18.4168 38.3369C18.0912 38.3369 17.8451 38.4283 17.6823 38.6071C17.5195 38.7859 17.4361 39.0323 17.4361 39.3463C17.4361 40.0338 17.8292 40.7451 18.6154 41.4843L21.0693 43.8448C21.6411 44.4012 22.1176 44.9297 22.4948 45.4305C22.872 45.9312 23.1738 46.5193 23.4041 47.1989C23.6344 47.8785 23.7496 48.6852 23.7496 49.6191C23.7496 51.6975 23.3684 53.2751 22.61 54.3481C21.8476 55.4211 20.5928 55.9576 18.8417 55.9576C16.9278 55.9457 15.542 55.4688 14.6923 54.519Z" fill="white"/>
<path d="M25.481 54.5608C24.9648 53.6349 24.7067 52.3115 24.7067 50.5948C24.7067 49.188 24.8893 48.1031 25.2586 47.352C25.6279 46.5969 26.1401 46.0445 26.7913 45.6948C27.4465 45.3411 28.4431 44.9556 29.7852 44.5265L30.9645 44.133V44.0853V42.2931C30.9645 41.8202 30.8692 41.4546 30.6826 41.2002C30.496 40.9459 30.2697 40.8187 30.0076 40.8187C29.7773 40.8187 29.5788 40.926 29.408 41.1366C29.2373 41.3512 29.1499 41.6374 29.1499 41.995V43.0759H24.9806V42.4878C24.9806 40.7194 25.3936 39.4596 26.2195 38.7045C27.0454 37.9495 28.3915 37.5759 30.2578 37.5759C31.7468 37.5759 32.9579 37.9654 33.891 38.7443C34.8241 39.5232 35.2887 40.624 35.2887 42.0506V55.761H31.0162V53.6229C30.8017 54.3621 30.4642 54.9344 29.9957 55.3437C29.5311 55.753 28.9752 55.9597 28.3399 55.9597C26.9501 55.9477 25.9972 55.4828 25.481 54.5608ZM30.7342 52.2002C30.8732 51.93 30.9447 51.6002 30.9447 51.2067V46.1916C30.3054 46.438 29.8369 46.7479 29.5311 47.1255C29.2293 47.503 29.0784 48.0276 29.0784 48.6992V51.008C29.0784 52.0731 29.3961 52.6056 30.0354 52.6056C30.365 52.6056 30.5953 52.4705 30.7342 52.2002Z" fill="white"/>
<path d="M38.0991 55.1952C37.567 54.6945 37.2136 54.0308 37.0428 53.2042C36.8721 52.3777 36.7847 51.3166 36.7847 50.0211L36.8324 41.9141C36.8324 40.6345 37.154 39.5933 37.8013 38.7826C38.4485 37.9719 39.3618 37.5665 40.5371 37.5665C41.7006 37.5665 42.5662 37.952 43.138 38.723V34.5225H47.4343V55.7516H43.138V53.8361C42.8918 54.5395 42.5622 55.068 42.1453 55.4217C41.7283 55.7754 41.1685 55.9503 40.4656 55.9503C39.4213 55.9463 38.6311 55.6959 38.0991 55.1952ZM42.9474 51.9524C43.0784 51.5352 43.1419 50.9748 43.1419 50.2714V49.5084V42.7526C43.1419 42.228 43.0665 41.7869 42.9196 41.4253C42.7727 41.0637 42.5106 40.8848 42.1334 40.8848C41.7085 40.8848 41.4266 41.0517 41.2876 41.3895C41.1486 41.7273 41.0771 42.1804 41.0771 42.7526V50.3191C41.0771 51.8253 41.4226 52.5803 42.1095 52.5803C42.5384 52.5803 42.8163 52.3697 42.9474 51.9524Z" fill="white"/>
<path d="M49.1334 36.5613V33.5649H53.4298V36.5613H49.1334ZM49.1334 55.7478V37.7655H53.4298V55.7518H49.1334V55.7478Z" fill="white"/>
<path d="M55.1257 55.7484V34.5193H59.3744V43.9536L61.4352 37.7621H65.8785L63.1784 45.575L66.617 55.7484H62.0507L59.3744 47.2719V55.7484H55.1257Z" fill="white"/>
<path d="M73.4635 54.6432C72.8083 53.7411 72.4827 52.5727 72.4827 51.1302C72.4827 49.5247 72.713 48.2371 73.1697 47.2595C73.6263 46.2858 74.349 45.4275 75.3298 44.6923C74.5277 43.1186 74.1266 41.7595 74.1266 40.6149C74.1266 39.4188 74.5158 38.4809 75.294 37.8014C76.0723 37.1218 77.0729 36.78 78.2999 36.78C79.511 36.78 80.5036 37.1019 81.2819 37.7497C82.0602 38.3974 82.4493 39.3035 82.4493 40.4639C82.4493 42.1688 81.5083 43.7663 79.6261 45.2566L80.3885 47.0488C80.8451 45.8368 81.5321 44.8949 82.4493 44.2233L84.117 46.8263C83.1521 47.5814 82.3659 48.8252 81.7584 50.5619L83.8947 55.7479H79.8207L79.3799 54.5915C79.0345 55.0008 78.5977 55.3386 78.0656 55.6009C77.5335 55.8632 76.9578 55.9943 76.3344 55.9943C75.0756 55.9943 74.1187 55.5453 73.4635 54.6432ZM77.7837 52.5687C77.9981 52.3303 78.1371 52.0561 78.2006 51.7461L76.7513 48.257L76.6044 48.4795C76.4733 48.6742 76.3661 48.9882 76.2867 49.4134C76.2033 49.8386 76.1636 50.2559 76.1636 50.6652V50.7884C76.1636 51.4282 76.2113 51.9448 76.3105 52.3343C76.4098 52.7277 76.6361 52.9224 76.9975 52.9224C77.3112 52.9224 77.5732 52.8072 77.7837 52.5687ZM78.7406 42.2125C78.9034 42.0337 79.0504 41.7754 79.1814 41.4376C79.3124 41.1037 79.376 40.7779 79.376 40.4679C79.376 39.9751 79.1377 39.7287 78.6652 39.7287C78.4706 39.7287 78.3118 39.8003 78.2006 39.9394C78.0855 40.0784 78.0299 40.2533 78.0299 40.4679C78.0299 40.8931 78.2006 41.5488 78.5461 42.435L78.7406 42.2125Z" fill="white"/>
<path d="M0 33.6292V55.9273C0 60.2669 3.52603 63.7958 7.86209 63.7958H51.3418L91.3392 72.5545L95.3854 73.4408C96.0049 72.948 96.4138 72.1969 96.4138 71.3425C96.4138 71.2709 96.398 71.2034 96.394 71.1318L93.0069 68.7633L85.9033 63.7998H89.6795C94.0155 63.7998 97.5415 60.2709 97.5415 55.9313V33.6332C97.5415 29.2936 94.0155 25.7646 89.6795 25.7646H7.86209C3.52603 25.7646 0 29.2936 0 33.6292ZM2.24348 33.6292C2.24348 30.5295 4.76094 28.01 7.85812 28.01H89.6675C92.7647 28.01 95.2822 30.5295 95.2822 33.6292V55.9273C95.2822 59.027 92.7647 61.5466 89.6675 61.5466H78.7519L91.1526 70.2099L51.5801 61.5466H7.86209C4.7649 61.5466 2.24745 59.027 2.24745 55.9273V33.6292H2.24348Z" fill="white"/>
<path d="M128.695 79.373C128.695 77.2787 127.289 75.5659 125.574 75.5659H93.8277C92.1124 75.5659 90.7067 77.2787 90.7067 79.373V84.1299H128.695V79.373Z" fill="white"/>
<path d="M134.123 85.4019H85.5809C84.2547 85.4019 83.1707 86.5424 83.1707 87.9412C83.1707 89.3361 84.2547 90.4806 85.5809 90.4806H134.123C135.45 90.4806 136.534 89.3401 136.534 87.9412C136.534 86.5424 135.45 85.4019 134.123 85.4019Z" fill="white"/>
<path d="M131.746 16.6353C131.666 12.5897 128.311 9.37476 124.265 9.37476H110.328H110.308H96.3704C92.3242 9.37476 88.9729 12.5897 88.8895 16.6353C88.8458 18.7574 89.37 20.7921 90.1998 22.1313C92.3401 25.5847 97.2519 26.0219 100.309 23.5739C103.367 21.1259 102.573 16.528 100.158 15.5782C97.6807 14.6045 95.878 16.1902 95.878 16.1902C100.186 14.3144 102.076 19.6436 98.8481 22.0439C95.7033 24.3806 91.2719 21.7816 91.4705 17.3665C91.4745 17.291 91.4705 17.2155 91.4745 17.14C91.5698 14.231 94.0038 11.9499 96.9104 11.9499H110.312H110.332H123.733C126.639 11.9499 129.073 14.235 129.169 17.14C129.173 17.2155 129.169 17.291 129.173 17.3665C129.367 21.7816 124.936 24.3806 121.795 22.0439C118.563 19.6396 120.453 14.3105 124.765 16.1902C124.765 16.1902 122.962 14.6045 120.485 15.5782C118.067 16.528 117.276 21.1259 120.334 23.5739C123.391 26.0219 128.303 25.5847 130.443 22.1313C131.265 20.7921 131.789 18.7574 131.746 16.6353Z" fill="white"/>
<path d="M110.327 15.6205H117.879L120.369 12.9341H110.327H110.307H100.265L102.75 15.6205H110.307H110.327Z" fill="white"/>
<path d="M120.421 25.5648C115.644 21.9366 117.884 16.4207 117.884 16.4207H110.332H110.312H102.759C102.759 16.4207 104.999 21.9366 100.222 25.5648C99.8924 25.8152 99.809 26.2801 100.039 26.6259C100.186 26.8445 100.428 26.9716 100.691 26.9716H110.316H110.336H119.961C120.223 26.9716 120.465 26.8405 120.612 26.6259C120.834 26.2801 120.751 25.8152 120.421 25.5648Z" fill="white"/>
<path d="M97.6117 8.28106H122.826C123.711 8.28106 124.43 7.56177 124.43 6.67556C124.43 5.78936 123.711 5.07007 122.826 5.07007H97.6117C96.7262 5.07007 96.0075 5.78936 96.0075 6.67556C96.0075 7.56177 96.7222 8.28106 97.6117 8.28106Z" fill="white"/>
<path d="M103.259 3.69168H117.371C118.257 3.69168 118.976 2.97239 118.976 2.0862C118.976 1.2 118.257 0.480713 117.371 0.480713H103.259C102.374 0.480713 101.655 1.2 101.655 2.0862C101.655 2.97239 102.374 3.69168 103.259 3.69168Z" fill="white"/>
<path d="M100.458 28.176V34.8325V35.0073C100.458 37.1056 102.158 38.8065 104.254 38.8065H116.393C118.489 38.8065 120.189 37.1056 120.189 35.0073V34.8325V30.7313V28.176H100.458Z" fill="white"/>
<path d="M120.181 46.1149V44.7677C120.181 42.6694 118.482 40.9685 116.385 40.9685H104.247C102.15 40.9685 100.451 42.6694 100.451 44.7677V46.1149H120.181Z" fill="white"/>
<path d="M100.458 68.8472V70.1944C100.458 72.2926 102.158 73.9935 104.254 73.9935H116.393C118.489 73.9935 120.189 72.2926 120.189 70.1944V68.8472H100.458Z" fill="white"/>
<path d="M100.458 47.6926V67.4355H120.185V47.6926H100.458ZM110.318 60.1392C108.896 60.1392 107.745 58.9868 107.745 57.5641C107.745 56.1414 108.896 54.9889 110.318 54.9889C111.739 54.9889 112.891 56.1414 112.891 57.5641C112.891 58.9868 111.739 60.1392 110.318 60.1392Z" fill="white"/>
<path d="M98.1863 80.9966V81.6682C98.1863 81.9782 98.3133 82.1332 98.5635 82.1332C98.6945 82.1332 98.7859 82.0934 98.8415 82.0139C98.897 81.9344 98.9248 81.8391 98.9248 81.7238V80.2654C98.6707 80.3369 98.4841 80.4283 98.365 80.5356C98.2458 80.6509 98.1863 80.8019 98.1863 80.9966Z" fill="white"/>
<path d="M92.7752 77.9023V83.0486H96.1662V82.0035H94.4469V76.9446C93.6051 77.0757 93.0889 77.485 92.7752 77.9023Z" fill="#6651FA"/>
<path d="M100.094 78.0985C99.7245 77.872 99.2441 77.7607 98.6564 77.7607C97.9178 77.7607 97.3858 77.872 97.0562 78.0906C96.7306 78.3091 96.5638 78.6748 96.5638 79.1914V79.3623H98.2157V79.0483C98.2157 78.945 98.2514 78.8615 98.3189 78.7979C98.3864 78.7344 98.4658 78.7066 98.5571 78.7066C98.6604 78.7066 98.7517 78.7423 98.8232 78.8178C98.8986 78.8933 98.9344 78.9967 98.9344 79.1357V79.6563V79.6722L98.4698 79.7875C97.9377 79.9107 97.5446 80.0259 97.2825 80.1253C97.0244 80.2286 96.8219 80.3876 96.675 80.6061C96.5281 80.8247 96.4566 81.1386 96.4566 81.548C96.4566 82.0487 96.5599 82.4342 96.7624 82.7004C96.9649 82.9706 97.3421 83.1058 97.894 83.1058C98.1481 83.1058 98.3665 83.0462 98.5492 82.9269C98.7358 82.8077 98.8669 82.6408 98.9542 82.4262V83.0462H100.646V79.0563C100.646 78.6469 100.463 78.3251 100.094 78.0985ZM98.9264 81.7268C98.9264 81.842 98.8986 81.9374 98.843 82.0169C98.7874 82.0964 98.6961 82.1361 98.5651 82.1361C98.3109 82.1361 98.1879 81.9811 98.1879 81.6712V80.9995C98.1879 80.8048 98.2474 80.6498 98.3665 80.5425C98.4857 80.4313 98.6723 80.3438 98.9264 80.2723V81.7268Z" fill="#6651FA"/>
<path d="M105.498 80.6263L105.014 77.8167H103.525L103.116 80.6263L102.639 77.8167H101.182L102.048 83.0504H103.934L104.378 80.0739L104.887 83.0504H106.586L107.499 77.8167H105.895L105.498 80.6263Z" fill="#6651FA"/>
<path d="M110.367 83.0507H112.051V80.261H113.627V79.0847H112.051V78.1031H113.711V76.9109H110.367V83.0507Z" fill="#6651FA"/>
<path d="M115.904 76.5959H114.205V77.4656H115.904V76.5959Z" fill="#6651FA"/>
<path d="M115.904 77.8167H114.205V83.0464H115.904V77.8167Z" fill="#6651FA"/>
<path d="M118.281 78.3958V77.8156H116.581V83.0454H118.281V79.0436C118.281 78.976 118.424 78.9204 118.714 78.8687C119.003 78.817 119.266 78.7932 119.508 78.7932V77.748C119.198 77.748 118.936 77.8037 118.725 77.9149C118.511 78.0302 118.364 78.1892 118.281 78.3958Z" fill="#6651FA"/>
<path d="M126.306 78.1343C126.088 77.8839 125.703 77.7607 125.143 77.7607C124.833 77.7607 124.591 77.8045 124.412 77.8839C124.237 77.9674 124.078 78.0985 123.936 78.2813C123.852 78.1184 123.705 77.9912 123.503 77.8998C123.3 77.8084 123.058 77.7607 122.78 77.7607C122.435 77.7607 122.172 77.8164 121.982 77.9237C121.795 78.0349 121.66 78.2018 121.585 78.4244V77.8164H119.921V83.0461H121.585V79.3503C121.585 79.1755 121.621 79.0245 121.692 78.8973C121.763 78.7701 121.887 78.7066 122.061 78.7066C122.196 78.7066 122.288 78.7503 122.327 78.8417C122.371 78.9331 122.391 79.0523 122.391 79.1993V83.0461H124.09V79.2868C124.09 79.1238 124.126 78.9847 124.198 78.8695C124.269 78.7542 124.384 78.6946 124.547 78.6946C124.781 78.6946 124.896 78.8655 124.896 79.2033V83.0501H126.608L126.628 79.2271C126.632 78.7503 126.521 78.3847 126.306 78.1343Z" fill="#6651FA"/>
</svg>
